<?xml version="1.0" standalone="no"?>
<!DOCTYPE svg PUBLIC "-//W3C//DTD SVG 20010904//EN"
 "http://www.w3.org/TR/2001/REC-SVG-20010904/DTD/svg10.dtd">
<svg version="1.0" xmlns="http://www.w3.org/2000/svg"
 width="260.000000pt" height="260.000000pt" viewBox="0 0 260.000000 260.000000"
 preserveAspectRatio="xMidYMid meet">
<metadata>
Created by potrace 1.11, written by Peter Selinger 2001-2013
</metadata>
<g transform="translate(0.000000,260.000000) scale(0.100000,-0.100000)"
fill="#000000" stroke="none">
<path d="M399 2043 c-85 -17 -119 -35 -177 -92 -78 -77 -120 -199 -126 -365
-1 -37 0 -69 3 -72 3 -3 7 -17 9 -32 2 -15 7 -31 13 -36 5 -6 9 -17 9 -25 0
-18 74 -144 109 -185 14 -17 95 -99 178 -183 206 -206 270 -289 374 -488 l48
-89 13 29 c7 17 15 32 18 35 3 3 18 30 34 60 74 141 172 266 326 420 231 231
303 328 336 454 43 164 -15 402 -121 493 -34 30 -86 59 -120 69 -71 20 -134
22 -222 9 -26 -4 -49 -6 -51 -6 -1 1 -25 -10 -52 -24 -52 -26 -109 -79 -138
-127 -9 -16 -19 -28 -22 -28 -3 0 -15 15 -27 33 -47 69 -126 129 -185 141 -7
2 -24 6 -38 9 -49 13 -129 13 -191 0z"/>
<path d="M2185 2022 c-11 -2 -52 -19 -92 -38 -40 -18 -84 -36 -98 -40 -14 -3
-25 -11 -25 -17 0 -6 -3 -8 -6 -5 -6 6 -57 -15 -261 -108 -28 -13 -57 -24 -62
-24 -6 0 -11 -13 -11 -30 0 -16 1 -30 3 -30 2 0 41 13 88 28 46 15 94 26 106
24 13 -2 33 -18 45 -35 l23 -32 0 -485 c1 -457 -5 -590 -26 -590 -5 0 -9 -6
-9 -14 0 -27 -100 -58 -195 -60 -29 -1 -32 -5 -26 -45 0 -6 168 -9 405 -10
384 0 404 1 409 18 7 27 -4 37 -38 38 -16 0 -46 4 -65 7 -19 4 -41 8 -47 8
-22 2 -64 55 -72 90 -5 19 -8 330 -7 691 1 430 -2 658 -9 660 -5 2 -19 1 -30
-1z"/>
</g>
</svg>
